<svg version="1.1" xmlns="http://www.w3.org/2000/svg" xmlns:xlink="http://www.w3.org/1999/xlink" width="47.6" height="63.22" viewBox="0,0,47.6,63.22"><g transform="translate(-216.2,-148.39)"><g data-paper-data="{&quot;isPaintingLayer&quot;:true}" fill-rule="nonzero" stroke-miterlimit="10" stroke-dasharray="" stroke-dashoffset="0" style="mix-blend-mode: normal"><g><g><g fill="none" stroke="#ffffff" stroke-width="5" stroke-linecap="butt" stroke-linejoin="miter"><g><g><path d="M261.3,156.29v23.71h-42.6v-23.7c0,-2.99 2.42,-5.41 5.41,-5.41h31.77c2.99,-0.01 5.42,2.41 5.42,5.4z"/><path d="M261.3,180v23.7c0,2.99 -2.43,5.41 -5.41,5.41h-31.77c-2.99,0 -5.41,-2.42 -5.41,-5.41v-23.7z"/></g></g></g><g><g><g fill="none" stroke="#494949" stroke-width="3.2076" stroke-linecap="round" stroke-linejoin="round"><path d="M261.3,156.29v23.71h-42.6v-23.7c0,-2.99 2.42,-5.41 5.41,-5.41h31.77c2.99,-0.01 5.42,2.41 5.42,5.4z"/><path d="M261.3,180v23.7c0,2.99 -2.43,5.41 -5.41,5.41h-31.77c-2.99,0 -5.41,-2.42 -5.41,-5.41v-23.7z"/></g><g><g stroke="#000000" stroke-width="0.6415" stroke-linecap="butt" stroke-linejoin="miter"><path d="M261.3,156.29v23.71h-42.6v-23.7c0,-2.99 2.42,-5.41 5.41,-5.41h31.77c2.99,-0.01 5.42,2.41 5.42,5.4z" fill="#2f2f2f"/><path d="M261.3,180v23.7c0,2.99 -2.43,5.41 -5.41,5.41h-31.77c-2.99,0 -5.41,-2.42 -5.41,-5.41v-23.7z" fill="#424242"/></g><path d="M260.89,203.06c0,2.99 -2.38,5.41 -5.31,5.41h-31.16c-2.93,0 -5.31,-2.42 -5.31,-5.41" fill="none" stroke="#636363" stroke-width="0.6415" stroke-linecap="round" stroke-linejoin="round"/><path d="M219.11,157.15c0,-2.99 2.38,-5.41 5.31,-5.41h31.16c2.93,0 5.31,2.42 5.31,5.41" fill="none" stroke="#494949" stroke-width="0.6415" stroke-linecap="round" stroke-linejoin="round"/><g fill="none" stroke="#000000" stroke-width="0.6415" stroke-linecap="butt" stroke-linejoin="miter"><path d="M261.3,156.29v23.71h-42.6v-23.7c0,-2.99 2.42,-5.41 5.41,-5.41h31.77c2.99,-0.01 5.42,2.41 5.42,5.4z"/><path d="M261.3,180v23.7c0,2.99 -2.43,5.41 -5.41,5.41h-31.77c-2.99,0 -5.41,-2.42 -5.41,-5.41v-23.7z"/></g><g fill="none" stroke="#686868" stroke-width="1.9246" stroke-linecap="round" stroke-linejoin="round"><path d="M222.36,175.38v9.24"/></g></g></g></g></g><g fill="#ffffff" stroke="none" stroke-width="1" stroke-linecap="butt" stroke-linejoin="miter"><path d="M246.65,169.55v4.81c0,2.83 -0.84,4.28 -2.52,4.99c1.85,0.71 2.91,2.25 2.91,5.3v6.45c0,4.19 -3.14,6.8 -7.15,6.8c-4.02,0 -6.93,-2.61 -6.93,-6.84v-1.77l3.75,0.97v0.71c0,1.99 1.24,3 3.14,3c1.94,0 3.18,-1.02 3.18,-3v-6.36c0,-2.47 -0.84,-3.4 -3.18,-3.4h-2.43v-3.49h2.16c2.25,0 3.09,-0.84 3.09,-3.22v-4.99c0,-2.16 -0.88,-3.49 -3.05,-3.49c-1.99,0 -2.91,1.15 -2.91,3.18v0.88h-3.75v-1.15c0,-4.24 2.61,-6.84 6.71,-6.84c4.59,0 6.98,3.18 6.98,7.46z"/></g></g></g></g></svg>