<svg version="1.1" xmlns="http://www.w3.org/2000/svg" xmlns:xlink="http://www.w3.org/1999/xlink" width="48.75751" height="63.22" viewBox="0,0,48.75751,63.22"><g transform="translate(-215.04249,-148.39)"><g data-paper-data="{&quot;isPaintingLayer&quot;:true}" fill-rule="nonzero" stroke-miterlimit="10" stroke-dasharray="" stroke-dashoffset="0" style="mix-blend-mode: normal"><g><g><g><g fill="none" stroke="#ffffff" stroke-width="5" stroke-linecap="butt" stroke-linejoin="miter"><g><g><path d="M261.3,156.29v23.71h-42.6v-23.7c0,-2.99 2.42,-5.41 5.41,-5.41h31.77c2.99,-0.01 5.42,2.41 5.42,5.4z"/><path d="M261.3,180v23.7c0,2.99 -2.43,5.41 -5.41,5.41h-31.77c-2.99,0 -5.41,-2.42 -5.41,-5.41v-23.7z"/></g></g></g><g><g><g fill="none" stroke="#494949" stroke-width="3.2076" stroke-linecap="round" stroke-linejoin="round"><path d="M261.3,156.29v23.71h-42.6v-23.7c0,-2.99 2.42,-5.41 5.41,-5.41h31.77c2.99,-0.01 5.42,2.41 5.42,5.4z"/><path d="M261.3,180v23.7c0,2.99 -2.43,5.41 -5.41,5.41h-31.77c-2.99,0 -5.41,-2.42 -5.41,-5.41v-23.7z"/></g><g><g stroke="#000000" stroke-width="0.6415" stroke-linecap="butt" stroke-linejoin="miter"><path d="M261.3,156.29v23.71h-42.6v-23.7c0,-2.99 2.42,-5.41 5.41,-5.41h31.77c2.99,-0.01 5.42,2.41 5.42,5.4z" fill="#2f2f2f"/><path d="M261.3,180v23.7c0,2.99 -2.43,5.41 -5.41,5.41h-31.77c-2.99,0 -5.41,-2.42 -5.41,-5.41v-23.7z" fill="#424242"/></g><path d="M260.89,203.06c0,2.99 -2.38,5.41 -5.31,5.41h-31.16c-2.93,0 -5.31,-2.42 -5.31,-5.41" fill="none" stroke="#636363" stroke-width="0.6415" stroke-linecap="round" stroke-linejoin="round"/><path d="M219.11,157.15c0,-2.99 2.38,-5.41 5.31,-5.41h31.16c2.93,0 5.31,2.42 5.31,5.41" fill="none" stroke="#494949" stroke-width="0.6415" stroke-linecap="round" stroke-linejoin="round"/><g fill="none" stroke="#000000" stroke-width="0.6415" stroke-linecap="butt" stroke-linejoin="miter"><path d="M261.3,156.29v23.71h-42.6v-23.7c0,-2.99 2.42,-5.41 5.41,-5.41h31.77c2.99,-0.01 5.42,2.41 5.42,5.4z"/><path d="M261.3,180v23.7c0,2.99 -2.43,5.41 -5.41,5.41h-31.77c-2.99,0 -5.41,-2.42 -5.41,-5.41v-23.7z"/></g><g fill="none" stroke="#686868" stroke-width="1.9246" stroke-linecap="round" stroke-linejoin="round"><path d="M222.36,175.38v9.24"/><path d="M257.64,175.38v9.24"/></g></g></g></g></g><g fill="#ffffff" stroke="none" stroke-width="1" stroke-linecap="butt" stroke-linejoin="miter"><path d="M245.35,162.71v17.29h-3.76v-17.29zM236.65,169.38h3.58l-3.51,10.62h-3.58z"/></g><g fill="#2f2f2f" stroke="#000000" stroke-width="0.6415" stroke-linecap="butt" stroke-linejoin="miter"><g><path d="M261.3,180h-42.6l-2.89,-6.28c-1.44,-3.13 0.77,-6.8 4.21,-6.83c0.03,0 0.06,0 0.09,0h31.77c8.61,-0.01 9.42,13.11 9.42,13.11z"/></g></g><path d="M261.3,180v23.7c0,2.99 -2.42,5.41 -5.41,5.41h-31.77c-2.99,0 -5.42,-2.42 -5.42,-5.41v-23.7z" fill="#424242" stroke="#000000" stroke-width="0.6415" stroke-linecap="butt" stroke-linejoin="miter"/><g fill="#ffffff" stroke="none" stroke-width="1" stroke-linecap="butt" stroke-linejoin="miter"><path d="M247.05,184.66v6.44c0,4.2 -3.14,6.8 -7.16,6.8c-4.01,0 -6.93,-2.6 -6.93,-6.84v-1.77l3.75,0.97v0.71c0,1.99 1.24,3 3.14,3c1.94,0 3.18,-1.01 3.18,-3v-6.36c0,-2.47 -0.84,-3.4 -3.18,-3.4h-2.43v-1.21h7.88c1.13,0.87 1.75,2.32 1.75,4.66z"/></g><g fill="#ffffff" stroke="none" stroke-width="1" stroke-linecap="butt" stroke-linejoin="miter"><path d="M245.3,180h-7.88l-1,-1.35h0.17c2.25,0 4.09,-0.5 4.09,-1.91c0,0 -1,-5.11 -6.05,-5.03c-1.99,0.04 -2.92,0.69 -2.92,1.89v0.52h-3.75v-0.68c0,-2.51 2.61,-4.06 6.71,-4.06c10.33,0 10.29,10.46 10.63,10.62z"/></g><g fill="none" stroke="#000000" stroke-width="0.6415" stroke-linecap="butt" stroke-linejoin="miter"><g><path d="M261.3,180h-42.6l-2.89,-6.28c-1.44,-3.13 0.77,-6.8 4.21,-6.83c0.03,0 0.06,0 0.09,0h31.77c8.61,-0.01 9.42,13.11 9.42,13.11z"/></g></g></g><g fill="none" stroke="#686868" stroke-width="1.9246" stroke-linecap="round" stroke-linejoin="round"><path d="M220.36,178.38l2,1.62v4.62"/><path d="M255.64,178.38l2,1.62v4.62"/></g></g></g></g></svg>