<svg version="1.1" xmlns="http://www.w3.org/2000/svg" xmlns:xlink="http://www.w3.org/1999/xlink" width="48.75751" height="63.22" viewBox="0,0,48.75751,63.22"><g transform="translate(-215.04249,-148.39)"><g data-paper-data="{&quot;isPaintingLayer&quot;:true}" fill-rule="nonzero" stroke-miterlimit="10" stroke-dasharray="" stroke-dashoffset="0" style="mix-blend-mode: normal"><g><g><g><g fill="none" stroke="#ffffff" stroke-width="5" stroke-linecap="butt" stroke-linejoin="miter"><g><g><path d="M261.3,156.29v23.71h-42.6v-23.7c0,-2.99 2.42,-5.41 5.41,-5.41h31.77c2.99,-0.01 5.42,2.41 5.42,5.4z"/><path d="M261.3,180v23.7c0,2.99 -2.43,5.41 -5.41,5.41h-31.77c-2.99,0 -5.41,-2.42 -5.41,-5.41v-23.7z"/></g></g></g><g><g><g fill="none" stroke="#494949" stroke-width="3.2076" stroke-linecap="round" stroke-linejoin="round"><path d="M261.3,156.29v23.71h-42.6v-23.7c0,-2.99 2.42,-5.41 5.41,-5.41h31.77c2.99,-0.01 5.42,2.41 5.42,5.4z"/><path d="M261.3,180v23.7c0,2.99 -2.43,5.41 -5.41,5.41h-31.77c-2.99,0 -5.41,-2.42 -5.41,-5.41v-23.7z"/></g><g><g stroke="#000000" stroke-width="0.6415" stroke-linecap="butt" stroke-linejoin="miter"><path d="M261.3,156.29v23.71h-42.6v-23.7c0,-2.99 2.42,-5.41 5.41,-5.41h31.77c2.99,-0.01 5.42,2.41 5.42,5.4z" fill="#2f2f2f"/><path d="M261.3,180v23.7c0,2.99 -2.43,5.41 -5.41,5.41h-31.77c-2.99,0 -5.41,-2.42 -5.41,-5.41v-23.7z" fill="#424242"/></g><path d="M260.89,203.06c0,2.99 -2.38,5.41 -5.31,5.41h-31.16c-2.93,0 -5.31,-2.42 -5.31,-5.41" fill="none" stroke="#636363" stroke-width="0.6415" stroke-linecap="round" stroke-linejoin="round"/><path d="M219.11,157.15c0,-2.99 2.38,-5.41 5.31,-5.41h31.16c2.93,0 5.31,2.42 5.31,5.41" fill="none" stroke="#494949" stroke-width="0.6415" stroke-linecap="round" stroke-linejoin="round"/><g fill="none" stroke="#000000" stroke-width="0.6415" stroke-linecap="butt" stroke-linejoin="miter"><path d="M261.3,156.29v23.71h-42.6v-23.7c0,-2.99 2.42,-5.41 5.41,-5.41h31.77c2.99,-0.01 5.42,2.41 5.42,5.4z"/><path d="M261.3,180v23.7c0,2.99 -2.43,5.41 -5.41,5.41h-31.77c-2.99,0 -5.41,-2.42 -5.41,-5.41v-23.7z"/></g><g fill="none" stroke="#686868" stroke-width="1.9246" stroke-linecap="round" stroke-linejoin="round"><path d="M222.36,175.38v9.24"/><path d="M257.64,175.38v9.24"/></g></g></g></g></g><g fill="#ffffff" stroke="none" stroke-width="1" stroke-linecap="butt" stroke-linejoin="miter"><path d="M246.87,170.04c0,2.47 -0.57,4.02 -1.59,5.83c-0.7,1.19 -1.69,2.64 -2.72,4.13h-4.67c1.34,-1.87 2.76,-3.78 3.64,-5.28c1.01,-1.77 1.32,-3.22 1.32,-4.81c0,-2.65 -1.01,-3.58 -2.91,-3.58c-1.95,0 -3.05,1.01 -3.05,3v1.06h-3.75v-1.15c0,-4.24 2.51,-6.84 6.89,-6.84c4.1,0 6.84,2.25 6.84,7.64z"/></g><g stroke-linecap="butt" stroke-linejoin="miter"><g fill="#2f2f2f" stroke="#000000" stroke-width="0.6415"><path d="M261.3,180h-42.6l-2.89,-6.28c-1.44,-3.13 0.77,-6.8 4.21,-6.83c0.03,0 0.06,0 0.09,0h31.77c8.61,-0.01 9.42,13.11 9.42,13.11z"/></g><g fill="#ffffff" stroke="none" stroke-width="1"><path d="M238.89,169.71l5,10.29h-4.06l-2,-4.02l-2.71,1l-1,-2.4l2.32,-1l-0.61,-1.87z"/></g></g><path d="M261.3,180v23.7c0,2.99 -2.42,5.41 -5.41,5.41h-31.77c-2.99,0 -5.42,-2.42 -5.42,-5.41v-23.7z" fill="#424242" stroke="#000000" stroke-width="0.6415" stroke-linecap="butt" stroke-linejoin="miter"/><g fill="#ffffff" stroke="none" stroke-width="1" stroke-linecap="butt" stroke-linejoin="miter"><path d="M243.89,180v17.28h-4.06v-17.28z"/></g><g fill="none" stroke="#000000" stroke-width="0.6415" stroke-linecap="butt" stroke-linejoin="miter"><g><path d="M261.3,180h-42.6l-2.89,-6.28c-1.44,-3.13 0.77,-6.8 4.21,-6.83c0.03,0 0.06,0 0.09,0h31.77c8.61,-0.01 9.42,13.11 9.42,13.11z"/></g></g></g><g fill="none" stroke="#686868" stroke-width="1.9246" stroke-linecap="round" stroke-linejoin="round"><path d="M220.36,178.38l2,1.62v4.62"/><path d="M255.64,178.38l2,1.62v4.62"/></g></g></g></g></svg>