<svg version="1.1" xmlns="http://www.w3.org/2000/svg" xmlns:xlink="http://www.w3.org/1999/xlink" width="488.41" height="369.77" viewBox="0,0,488.41,369.77"><g transform="translate(4.205,4.885)"><g data-paper-data="{&quot;isPaintingLayer&quot;:true}" fill-rule="nonzero" stroke-miterlimit="10" stroke-dasharray="" stroke-dashoffset="0" style="mix-blend-mode: normal"><path d="M-4.205,364.885v-369.77h488.41v369.77z" fill="#2a2a2a" stroke="none" stroke-width="1" stroke-linecap="butt" stroke-linejoin="miter"/><g><path d="M191.66,55.51v34.12h-61.31v-34.12c0,-4.3 3.49,-7.78 7.79,-7.78h45.72c4.31,-0.01 7.8,3.47 7.8,7.78z" fill="none" stroke="#ffffff" stroke-width="7.1962" stroke-linecap="butt" stroke-linejoin="miter"/><path d="M191.66,89.62v34.12c0,4.3 -3.49,7.79 -7.79,7.79h-45.72c-4.3,0 -7.79,-3.49 -7.79,-7.79v-34.12z" fill="none" stroke="#ffffff" stroke-width="7.1962" stroke-linecap="butt" stroke-linejoin="miter"/><path d="M191.66,55.51v34.12h-61.31v-34.12c0,-4.3 3.49,-7.78 7.79,-7.78h45.72c4.31,-0.01 7.8,3.47 7.8,7.78z" fill="none" stroke="#494949" stroke-width="4.6165" stroke-linecap="round" stroke-linejoin="round"/><path d="M191.66,89.62v34.12c0,4.3 -3.49,7.79 -7.79,7.79h-45.72c-4.3,0 -7.79,-3.49 -7.79,-7.79v-34.12z" fill="none" stroke="#494949" stroke-width="4.6165" stroke-linecap="round" stroke-linejoin="round"/><g stroke="#000000" stroke-width="0.9233" stroke-linecap="butt" stroke-linejoin="miter"><path d="M191.66,55.51v34.12h-61.31v-34.12c0,-4.3 3.49,-7.78 7.79,-7.78h45.72c4.31,-0.01 7.8,3.47 7.8,7.78z" fill="#2f2f2f"/><path d="M191.66,89.62v34.12c0,4.3 -3.49,7.79 -7.79,7.79h-45.72c-4.3,0 -7.79,-3.49 -7.79,-7.79v-34.12z" fill="#ffd117"/></g><path d="M191.07,122.81c0,4.3 -3.42,7.79 -7.64,7.79h-44.84c-4.22,0 -7.64,-3.49 -7.64,-7.79" fill="none" stroke="#636363" stroke-width="0.9233" stroke-linecap="round" stroke-linejoin="round"/><path d="M130.95,56.74c0,-4.3 3.42,-7.79 7.64,-7.79h44.84c4.22,0 7.64,3.49 7.64,7.79" fill="none" stroke="#494949" stroke-width="0.9233" stroke-linecap="round" stroke-linejoin="round"/><path d="M191.66,55.51v34.12h-61.31v-34.12c0,-4.3 3.49,-7.78 7.79,-7.78h45.72c4.31,-0.01 7.8,3.47 7.8,7.78z" fill="#d0ab12" stroke="#000000" stroke-width="0.9233" stroke-linecap="butt" stroke-linejoin="miter"/><g fill="none" stroke="#686868" stroke-width="2.7699" stroke-linecap="round" stroke-linejoin="round"><path d="M135.62,96.27v-13.29"/><path d="M186.4,96.27v-13.29"/></g><path d="M270.65,55.51v34.12h-61.31v-34.12c0,-4.3 3.49,-7.78 7.79,-7.78h45.72c4.31,-0.01 7.8,3.47 7.8,7.78z" fill="none" stroke="#ffffff" stroke-width="7.1962" stroke-linecap="butt" stroke-linejoin="miter"/><path d="M270.65,89.62v34.12c0,4.3 -3.49,7.79 -7.79,7.79h-45.72c-4.3,0 -7.79,-3.49 -7.79,-7.79v-34.12z" fill="none" stroke="#ffffff" stroke-width="7.1962" stroke-linecap="butt" stroke-linejoin="miter"/><path d="M270.65,55.51v34.12h-61.31v-34.12c0,-4.3 3.49,-7.78 7.79,-7.78h45.72c4.31,-0.01 7.8,3.47 7.8,7.78z" fill="none" stroke="#494949" stroke-width="4.6165" stroke-linecap="round" stroke-linejoin="round"/><path d="M270.65,89.62v34.12c0,4.3 -3.49,7.79 -7.79,7.79h-45.72c-4.3,0 -7.79,-3.49 -7.79,-7.79v-34.12z" fill="none" stroke="#494949" stroke-width="4.6165" stroke-linecap="round" stroke-linejoin="round"/><g stroke="#000000" stroke-width="0.9233" stroke-linecap="butt" stroke-linejoin="miter"><path d="M270.65,55.51v34.12h-61.31v-34.12c0,-4.3 3.49,-7.78 7.79,-7.78h45.72c4.31,-0.01 7.8,3.47 7.8,7.78z" fill="#2f2f2f"/><path d="M270.65,89.62v34.12c0,4.3 -3.49,7.79 -7.79,7.79h-45.72c-4.3,0 -7.79,-3.49 -7.79,-7.79v-34.12z" fill="#424242"/></g><path d="M270.06,122.81c0,4.3 -3.42,7.79 -7.64,7.79h-44.84c-4.22,0 -7.64,-3.49 -7.64,-7.79" fill="none" stroke="#636363" stroke-width="0.9233" stroke-linecap="round" stroke-linejoin="round"/><path d="M209.94,56.74c0,-4.3 3.42,-7.79 7.64,-7.79h44.84c4.22,0 7.64,3.49 7.64,7.79" fill="none" stroke="#494949" stroke-width="0.9233" stroke-linecap="round" stroke-linejoin="round"/><g stroke="#000000" stroke-width="0.9233" stroke-linecap="butt" stroke-linejoin="miter"><path d="M270.65,55.51v34.12h-61.31v-34.12c0,-4.3 3.49,-7.78 7.79,-7.78h45.72c4.31,-0.01 7.8,3.47 7.8,7.78z" fill="#d0ab12"/><path d="M270.65,89.62v34.12c0,4.3 -3.49,7.79 -7.79,7.79h-45.72c-4.3,0 -7.79,-3.49 -7.79,-7.79v-34.12z" fill="#ffd117"/></g><g fill="none" stroke="#686868" stroke-width="2.7699" stroke-linecap="round" stroke-linejoin="round"><path d="M214.61,96.27v-13.29"/><path d="M265.39,82.98v13.29"/></g><path d="M349.64,55.51v34.12h-61.31v-34.12c0,-4.3 3.49,-7.78 7.79,-7.78h45.72c4.31,-0.01 7.8,3.47 7.8,7.78z" fill="none" stroke="#ffffff" stroke-width="7.1962" stroke-linecap="butt" stroke-linejoin="miter"/><path d="M349.64,89.62v34.12c0,4.3 -3.49,7.79 -7.79,7.79h-45.72c-4.3,0 -7.79,-3.49 -7.79,-7.79v-34.12z" fill="none" stroke="#ffffff" stroke-width="7.1962" stroke-linecap="butt" stroke-linejoin="miter"/><path d="M349.64,55.51v34.12h-61.31v-34.12c0,-4.3 3.49,-7.78 7.79,-7.78h45.72c4.31,-0.01 7.8,3.47 7.8,7.78z" fill="none" stroke="#494949" stroke-width="4.6165" stroke-linecap="round" stroke-linejoin="round"/><path d="M349.64,89.62v34.12c0,4.3 -3.49,7.79 -7.79,7.79h-45.72c-4.3,0 -7.79,-3.49 -7.79,-7.79v-34.12z" fill="none" stroke="#494949" stroke-width="4.6165" stroke-linecap="round" stroke-linejoin="round"/><g stroke="#000000" stroke-width="0.9233" stroke-linecap="butt" stroke-linejoin="miter"><path d="M349.64,55.51v34.12h-61.31v-34.12c0,-4.3 3.49,-7.78 7.79,-7.78h45.72c4.31,-0.01 7.8,3.47 7.8,7.78z" fill="#2f2f2f"/><path d="M349.64,89.62v34.12c0,4.3 -3.49,7.79 -7.79,7.79h-45.72c-4.3,0 -7.79,-3.49 -7.79,-7.79v-34.12z" fill="#424242"/></g><path d="M349.05,122.81c0,4.3 -3.42,7.79 -7.64,7.79h-44.84c-4.22,0 -7.64,-3.49 -7.64,-7.79" fill="none" stroke="#636363" stroke-width="0.9233" stroke-linecap="round" stroke-linejoin="round"/><path d="M288.93,56.74c0,-4.3 3.42,-7.79 7.64,-7.79h44.84c4.22,0 7.64,3.49 7.64,7.79" fill="none" stroke="#494949" stroke-width="0.9233" stroke-linecap="round" stroke-linejoin="round"/><g stroke="#000000" stroke-width="0.9233" stroke-linecap="butt" stroke-linejoin="miter"><path d="M349.64,55.51v34.12h-61.31v-34.12c0,-4.3 3.49,-7.78 7.79,-7.78h45.72c4.31,-0.01 7.8,3.47 7.8,7.78z" fill="#d0ab12"/><path d="M349.64,89.62v34.12c0,4.3 -3.49,7.79 -7.79,7.79h-45.72c-4.3,0 -7.79,-3.49 -7.79,-7.79v-34.12z" fill="#ffd117"/></g><g fill="none" stroke="#686868" stroke-width="2.7699" stroke-linecap="round" stroke-linejoin="round"><path d="M293.6,96.27v-13.29"/><path d="M344.38,82.98v13.29"/></g><path d="M157.43,64.8l8.43,34.24v-34.24h5.07v49.65h-5.2l-9.58,-36.53v36.53h-5.07v-49.65z" fill="#2a2a2a" stroke="none" stroke-width="1" stroke-linecap="butt" stroke-linejoin="miter"/><path d="M249.76,64.8v5.64h-10.59v15.6h7.48v5.64h-7.48v17.12h10.59v5.64h-16.42v-49.64z" fill="#2a2a2a" stroke="none" stroke-width="1" stroke-linecap="butt" stroke-linejoin="miter"/><path d="M307.67,64.8l3.04,34.94l5.39,-34.94h5.58l5.01,35.13l3.55,-35.13h5.64l-5.64,49.65h-5.83l-5.52,-37.42l-6.02,37.42h-5.64l-5.14,-49.65z" fill="#2a2a2a" stroke="none" stroke-width="1" stroke-linecap="butt" stroke-linejoin="miter"/><path d="M191.66,166.25v34.12h-61.31v-34.12c0,-4.3 3.49,-7.78 7.79,-7.78h45.72c4.31,0 7.8,3.48 7.8,7.78z" fill="none" stroke="#ffffff" stroke-width="7.1962" stroke-linecap="butt" stroke-linejoin="miter"/><path d="M191.66,200.37v34.12c0,4.3 -3.49,7.79 -7.79,7.79h-45.72c-4.3,0 -7.79,-3.49 -7.79,-7.79v-34.12z" fill="none" stroke="#ffffff" stroke-width="7.1962" stroke-linecap="butt" stroke-linejoin="miter"/><path d="M191.66,166.25v34.12h-61.31v-34.12c0,-4.3 3.49,-7.78 7.79,-7.78h45.72c4.31,0 7.8,3.48 7.8,7.78z" fill="none" stroke="#494949" stroke-width="4.6165" stroke-linecap="round" stroke-linejoin="round"/><path d="M191.66,200.37v34.12c0,4.3 -3.49,7.79 -7.79,7.79h-45.72c-4.3,0 -7.79,-3.49 -7.79,-7.79v-34.12z" fill="none" stroke="#494949" stroke-width="4.6165" stroke-linecap="round" stroke-linejoin="round"/><g stroke="#000000" stroke-width="0.9233" stroke-linecap="butt" stroke-linejoin="miter"><path d="M191.66,166.25v34.12h-61.31v-34.12c0,-4.3 3.49,-7.78 7.79,-7.78h45.72c4.31,0 7.8,3.48 7.8,7.78z" fill="#2f2f2f"/><path d="M191.66,200.37v34.12c0,4.3 -3.49,7.79 -7.79,7.79h-45.72c-4.3,0 -7.79,-3.49 -7.79,-7.79v-34.12z" fill="#424242"/></g><path d="M191.07,233.56c0,4.3 -3.42,7.79 -7.64,7.79h-44.84c-4.22,0 -7.64,-3.49 -7.64,-7.79" fill="none" stroke="#636363" stroke-width="0.9233" stroke-linecap="round" stroke-linejoin="round"/><path d="M130.95,167.49c0,-4.3 3.42,-7.79 7.64,-7.79h44.84c4.22,0 7.64,3.49 7.64,7.79" fill="none" stroke="#494949" stroke-width="0.9233" stroke-linecap="round" stroke-linejoin="round"/><g stroke="#000000" stroke-width="0.9233" stroke-linecap="butt" stroke-linejoin="miter"><path d="M191.66,166.25v34.12h-61.31v-34.12c0,-4.3 3.49,-7.78 7.79,-7.78h45.72c4.31,0 7.8,3.48 7.8,7.78z" fill="#d0ab12"/><path d="M191.66,200.37v34.12c0,4.3 -3.49,7.79 -7.79,7.79h-45.72c-4.3,0 -7.79,-3.49 -7.79,-7.79v-34.12z" fill="#ffd117"/></g><g fill="none" stroke="#686868" stroke-width="2.7699" stroke-linecap="round" stroke-linejoin="round"><path d="M135.62,207.02v-13.29"/><path d="M186.4,207.02v-13.29"/></g><path d="M270.65,166.25v34.12h-61.31v-34.12c0,-4.3 3.49,-7.78 7.79,-7.78h45.72c4.31,0 7.8,3.48 7.8,7.78z" fill="none" stroke="#ffffff" stroke-width="7.1962" stroke-linecap="butt" stroke-linejoin="miter"/><path d="M270.65,200.37v34.12c0,4.3 -3.49,7.79 -7.79,7.79h-45.72c-4.3,0 -7.79,-3.49 -7.79,-7.79v-34.12z" fill="none" stroke="#ffffff" stroke-width="7.1962" stroke-linecap="butt" stroke-linejoin="miter"/><path d="M270.65,166.25v34.12h-61.31v-34.12c0,-4.3 3.49,-7.78 7.79,-7.78h45.72c4.31,0 7.8,3.48 7.8,7.78z" fill="none" stroke="#494949" stroke-width="4.6165" stroke-linecap="round" stroke-linejoin="round"/><path d="M270.65,200.37v34.12c0,4.3 -3.49,7.79 -7.79,7.79h-45.72c-4.3,0 -7.79,-3.49 -7.79,-7.79v-34.12z" fill="none" stroke="#494949" stroke-width="4.6165" stroke-linecap="round" stroke-linejoin="round"/><g stroke="#000000" stroke-width="0.9233" stroke-linecap="butt" stroke-linejoin="miter"><path d="M270.65,166.25v34.12h-61.31v-34.12c0,-4.3 3.49,-7.78 7.79,-7.78h45.72c4.31,0 7.8,3.48 7.8,7.78z" fill="#2f2f2f"/><path d="M270.65,200.37v34.12c0,4.3 -3.49,7.79 -7.79,7.79h-45.72c-4.3,0 -7.79,-3.49 -7.79,-7.79v-34.12z" fill="#424242"/></g><path d="M270.06,233.56c0,4.3 -3.42,7.79 -7.64,7.79h-44.84c-4.22,0 -7.64,-3.49 -7.64,-7.79" fill="none" stroke="#636363" stroke-width="0.9233" stroke-linecap="round" stroke-linejoin="round"/><path d="M209.94,167.49c0,-4.3 3.42,-7.79 7.64,-7.79h44.84c4.22,0 7.64,3.49 7.64,7.79" fill="none" stroke="#494949" stroke-width="0.9233" stroke-linecap="round" stroke-linejoin="round"/><g stroke="#000000" stroke-width="0.9233" stroke-linecap="butt" stroke-linejoin="miter"><path d="M270.65,166.25v34.12h-61.31v-34.12c0,-4.3 3.49,-7.78 7.79,-7.78h45.72c4.31,0 7.8,3.48 7.8,7.78z" fill="#d0ab12"/><path d="M270.65,200.37v34.12c0,4.3 -3.49,7.79 -7.79,7.79h-45.72c-4.3,0 -7.79,-3.49 -7.79,-7.79v-34.12z" fill="#ffd117"/></g><g fill="none" stroke="#686868" stroke-width="2.7699" stroke-linecap="round" stroke-linejoin="round"><path d="M214.61,193.73v13.29"/><path d="M265.39,207.02v-13.29"/></g><path d="M349.64,166.25v34.12h-61.31v-34.12c0,-4.3 3.49,-7.78 7.79,-7.78h45.72c4.31,0 7.8,3.48 7.8,7.78z" fill="none" stroke="#ffffff" stroke-width="7.1962" stroke-linecap="butt" stroke-linejoin="miter"/><path d="M349.64,200.37v34.12c0,4.3 -3.49,7.79 -7.79,7.79h-45.72c-4.3,0 -7.79,-3.49 -7.79,-7.79v-34.12z" fill="none" stroke="#ffffff" stroke-width="7.1962" stroke-linecap="butt" stroke-linejoin="miter"/><path d="M349.64,166.25v34.12h-61.31v-34.12c0,-4.3 3.49,-7.78 7.79,-7.78h45.72c4.31,0 7.8,3.48 7.8,7.78z" fill="none" stroke="#494949" stroke-width="4.6165" stroke-linecap="round" stroke-linejoin="round"/><path d="M349.64,200.37v34.12c0,4.3 -3.49,7.79 -7.79,7.79h-45.72c-4.3,0 -7.79,-3.49 -7.79,-7.79v-34.12z" fill="none" stroke="#494949" stroke-width="4.6165" stroke-linecap="round" stroke-linejoin="round"/><g stroke="#000000" stroke-width="0.9233" stroke-linecap="butt" stroke-linejoin="miter"><path d="M349.64,166.25v34.12h-61.31v-34.12c0,-4.3 3.49,-7.78 7.79,-7.78h45.72c4.31,0 7.8,3.48 7.8,7.78z" fill="#2f2f2f"/><path d="M349.64,200.37v34.12c0,4.3 -3.49,7.79 -7.79,7.79h-45.72c-4.3,0 -7.79,-3.49 -7.79,-7.79v-34.12z" fill="#424242"/></g><path d="M349.05,233.56c0,4.3 -3.42,7.79 -7.64,7.79h-44.84c-4.22,0 -7.64,-3.49 -7.64,-7.79" fill="none" stroke="#636363" stroke-width="0.9233" stroke-linecap="round" stroke-linejoin="round"/><path d="M288.93,167.49c0,-4.3 3.42,-7.79 7.64,-7.79h44.84c4.22,0 7.64,3.49 7.64,7.79" fill="none" stroke="#494949" stroke-width="0.9233" stroke-linecap="round" stroke-linejoin="round"/><g stroke="#000000" stroke-width="0.9233" stroke-linecap="butt" stroke-linejoin="miter"><path d="M349.64,166.25v34.12h-61.31v-34.12c0,-4.3 3.49,-7.78 7.79,-7.78h45.72c4.31,0 7.8,3.48 7.8,7.78z" fill="#d0ab12"/><path d="M349.64,200.37v34.12c0,4.3 -3.49,7.79 -7.79,7.79h-45.72c-4.3,0 -7.79,-3.49 -7.79,-7.79v-34.12z" fill="#ffd117"/></g><g fill="none" stroke="#686868" stroke-width="2.7699" stroke-linecap="round" stroke-linejoin="round"><path d="M293.6,207.02v-13.29"/><path d="M344.38,207.02v-13.29"/></g><path d="M428.64,166.25v34.12h-61.31v-34.12c0,-4.3 3.49,-7.78 7.79,-7.78h45.72c4.31,0 7.8,3.48 7.8,7.78z" fill="none" stroke="#ffffff" stroke-width="7.1962" stroke-linecap="butt" stroke-linejoin="miter"/><path d="M428.64,200.37v34.12c0,4.3 -3.49,7.79 -7.79,7.79h-45.72c-4.3,0 -7.79,-3.49 -7.79,-7.79v-34.12z" fill="none" stroke="#ffffff" stroke-width="7.1962" stroke-linecap="butt" stroke-linejoin="miter"/><path d="M428.64,166.25v34.12h-61.31v-34.12c0,-4.3 3.49,-7.78 7.79,-7.78h45.72c4.31,0 7.8,3.48 7.8,7.78z" fill="none" stroke="#494949" stroke-width="4.6165" stroke-linecap="round" stroke-linejoin="round"/><path d="M428.64,200.37v34.12c0,4.3 -3.49,7.79 -7.79,7.79h-45.72c-4.3,0 -7.79,-3.49 -7.79,-7.79v-34.12z" fill="none" stroke="#494949" stroke-width="4.6165" stroke-linecap="round" stroke-linejoin="round"/><g stroke="#000000" stroke-width="0.9233" stroke-linecap="butt" stroke-linejoin="miter"><path d="M428.64,166.25v34.12h-61.31v-34.12c0,-4.3 3.49,-7.78 7.79,-7.78h45.72c4.31,0 7.8,3.48 7.8,7.78z" fill="#2f2f2f"/><path d="M428.64,200.37v34.12c0,4.3 -3.49,7.79 -7.79,7.79h-45.72c-4.3,0 -7.79,-3.49 -7.79,-7.79v-34.12z" fill="#424242"/></g><path d="M428.04,233.56c0,4.3 -3.42,7.79 -7.64,7.79h-44.84c-4.22,0 -7.64,-3.49 -7.64,-7.79" fill="none" stroke="#636363" stroke-width="0.9233" stroke-linecap="round" stroke-linejoin="round"/><path d="M367.92,167.49c0,-4.3 3.42,-7.79 7.64,-7.79h44.84c4.22,0 7.64,3.49 7.64,7.79" fill="none" stroke="#494949" stroke-width="0.9233" stroke-linecap="round" stroke-linejoin="round"/><g fill="none" stroke="#000000" stroke-width="0.9233" stroke-linecap="butt" stroke-linejoin="miter"><path d="M428.64,166.25v34.12h-61.31v-34.12c0,-4.3 3.49,-7.78 7.79,-7.78h45.72c4.31,0 7.8,3.48 7.8,7.78z"/><path d="M428.64,200.37v34.12c0,4.3 -3.49,7.79 -7.79,7.79h-45.72c-4.3,0 -7.79,-3.49 -7.79,-7.79v-34.12z"/></g><g fill="none" stroke="#686868" stroke-width="2.7699" stroke-linecap="round" stroke-linejoin="round"><path d="M372.59,207.02v-13.29"/><path d="M423.37,207.02v-13.29"/></g><path d="M112.67,166.25v34.12h-61.31v-34.12c0,-4.3 3.49,-7.78 7.79,-7.78h45.72c4.31,0 7.8,3.48 7.8,7.78z" fill="none" stroke="#ffffff" stroke-width="7.1962" stroke-linecap="butt" stroke-linejoin="miter"/><path d="M112.67,200.37v34.12c0,4.3 -3.49,7.79 -7.79,7.79h-45.72c-4.3,0 -7.79,-3.49 -7.79,-7.79v-34.12z" fill="none" stroke="#ffffff" stroke-width="7.1962" stroke-linecap="butt" stroke-linejoin="miter"/><path d="M112.67,166.25v34.12h-61.31v-34.12c0,-4.3 3.49,-7.78 7.79,-7.78h45.72c4.31,0 7.8,3.48 7.8,7.78z" fill="none" stroke="#494949" stroke-width="4.6165" stroke-linecap="round" stroke-linejoin="round"/><path d="M112.67,200.37v34.12c0,4.3 -3.49,7.79 -7.79,7.79h-45.72c-4.3,0 -7.79,-3.49 -7.79,-7.79v-34.12z" fill="none" stroke="#494949" stroke-width="4.6165" stroke-linecap="round" stroke-linejoin="round"/><g stroke="#000000" stroke-width="0.9233" stroke-linecap="butt" stroke-linejoin="miter"><path d="M112.67,166.25v34.12h-61.31v-34.12c0,-4.3 3.49,-7.78 7.79,-7.78h45.72c4.31,0 7.8,3.48 7.8,7.78z" fill="#2f2f2f"/><path d="M112.67,200.37v34.12c0,4.3 -3.49,7.79 -7.79,7.79h-45.72c-4.3,0 -7.79,-3.49 -7.79,-7.79v-34.12z" fill="#424242"/></g><path d="M112.08,233.56c0,4.3 -3.42,7.79 -7.64,7.79h-44.84c-4.22,0 -7.64,-3.49 -7.64,-7.79" fill="none" stroke="#636363" stroke-width="0.9233" stroke-linecap="round" stroke-linejoin="round"/><path d="M51.96,167.49c0,-4.3 3.42,-7.79 7.64,-7.79h44.84c4.22,0 7.64,3.49 7.64,7.79" fill="none" stroke="#494949" stroke-width="0.9233" stroke-linecap="round" stroke-linejoin="round"/><g stroke="#000000" stroke-width="0.9233" stroke-linecap="butt" stroke-linejoin="miter"><path d="M112.67,166.25v34.12h-61.31v-34.12c0,-4.3 3.49,-7.78 7.79,-7.78h45.72c4.31,0 7.8,3.48 7.8,7.78z" fill="#d0ab12"/><path d="M112.67,200.37v34.12c0,4.3 -3.49,7.79 -7.79,7.79h-45.72c-4.3,0 -7.79,-3.49 -7.79,-7.79v-34.12z" fill="#ffd117"/></g><g fill="none" stroke="#686868" stroke-width="2.7699" stroke-linecap="round" stroke-linejoin="round"><path d="M56.63,193.73v13.29"/><path d="M107.41,207.02v-13.29"/></g><path d="M75.68,175.55l6.4,19.28l6.53,-19.28h5.64l-9.32,26.44v23.21h-5.83v-23.21l-9.32,-26.44z" fill="#2a2a2a" stroke="none" stroke-width="1" stroke-linecap="butt" stroke-linejoin="miter"/><path d="M169.76,175.55v5.64h-10.59v15.6h7.48v5.64h-7.48v17.12h10.59v5.64h-16.42v-49.65h16.42z" fill="#2a2a2a" stroke="none" stroke-width="1" stroke-linecap="butt" stroke-linejoin="miter"/><path d="M242.76,175.55l8.62,49.65h-5.64l-1.14,-7.17h-9.26l-1.08,7.17h-5.64l8.37,-49.65zM236.1,213.15h7.74c0,0 -0.9345,-5.91136 -1.49277,-9.44281c-0.71334,-4.51237 -2.43723,-15.41719 -2.43723,-15.41719z" fill="#2a2a2a" stroke="none" stroke-width="1" stroke-linecap="butt" stroke-linejoin="miter"/><path d="M319.18,175.55c6.09,0 9.83,3.68 9.83,9.83v6.91c0,3.93 -1.21,6.02 -3.49,7.04c2.47,1.01 3.87,3.17 3.87,7.23v18.64h-5.77v-18.83c0,-3.11 -1.01,-4.31 -4.5,-4.31h-4.31v23.15h-5.71v-49.65h10.08zM314.81,197.04h3.93c3.42,0 4.57,-1.27 4.57,-4.5v-6.47c0,-3.23 -1.59,-5.01 -4.57,-5.01h-3.93c0,0 0,4.474 0,6.94c0,2.81447 0,9.04 0,9.04z" fill="#2a2a2a" stroke="none" stroke-width="1" stroke-linecap="butt" stroke-linejoin="miter"/><path d="M407.75,184.36v1.78h-5.39v-1.33c0,-2.85 -1.59,-4.69 -4.31,-4.69c-3.11,0 -4.57,2.41 -4.57,5.33c0,2.41 0.95,4.5 2.6,6.85c2.28,3.17 6.91,8.94 9.2,12.62c1.97,3.11 2.79,5.64 2.79,9.26c0,7.29 -3.17,11.92 -9.96,11.92c-6.53,0 -10.46,-4.31 -10.46,-9.7v-2.66l5.39,1.4v1.2c0,2.35 1.71,4.44 4.69,4.44c3.17,0 4.76,-2.16 4.76,-5.83c0,-2.28 -0.63,-4.57 -2.47,-7.42c-1.9,-2.85 -5.83,-7.36 -8.18,-11.03c-2.85,-4.5 -3.74,-7.93 -3.74,-11.1c0,-6.6 4,-10.72 10.08,-10.72c5.95,-0.02 9.57,3.91 9.57,9.68z" fill="#ffffff" stroke="none" stroke-width="1" stroke-linecap="butt" stroke-linejoin="miter"/><g fill="none" stroke="#ffffff" stroke-width="7.1962" stroke-linecap="butt" stroke-linejoin="miter"><path d="M428.64,166.25v34.12h-61.31v-34.12c0,-4.3 3.49,-7.78 7.79,-7.78h45.72c4.31,0 7.8,3.48 7.8,7.78z"/><path d="M428.64,200.37v34.12c0,4.3 -3.49,7.79 -7.79,7.79h-45.72c-4.3,0 -7.79,-3.49 -7.79,-7.79v-34.12z"/></g><g><g fill="none" stroke="#494949" stroke-width="4.6165" stroke-linecap="round" stroke-linejoin="round"><path d="M428.64,166.25v34.12h-61.31v-34.12c0,-4.3 3.49,-7.78 7.79,-7.78h45.72c4.31,0 7.8,3.48 7.8,7.78z"/><path d="M428.64,200.37v34.12c0,4.3 -3.49,7.79 -7.79,7.79h-45.72c-4.3,0 -7.79,-3.49 -7.79,-7.79v-34.12z"/></g><g><g stroke="#000000" stroke-width="0.9233" stroke-linecap="butt" stroke-linejoin="miter"><path d="M428.64,166.25v34.12h-61.31v-34.12c0,-4.3 3.49,-7.78 7.79,-7.78h45.72c4.31,0 7.8,3.48 7.8,7.78z" fill="#2f2f2f"/><path d="M428.64,200.37v34.12c0,4.3 -3.49,7.79 -7.79,7.79h-45.72c-4.3,0 -7.79,-3.49 -7.79,-7.79v-34.12z" fill="#424242"/></g><path d="M428.04,233.56c0,4.3 -3.42,7.79 -7.64,7.79h-44.84c-4.22,0 -7.64,-3.49 -7.64,-7.79" fill="none" stroke="#636363" stroke-width="0.9233" stroke-linecap="round" stroke-linejoin="round"/><path d="M367.92,167.49c0,-4.3 3.42,-7.79 7.64,-7.79h44.84c4.22,0 7.64,3.49 7.64,7.79" fill="none" stroke="#494949" stroke-width="0.9233" stroke-linecap="round" stroke-linejoin="round"/><g stroke="#000000" stroke-width="0.9233" stroke-linecap="butt" stroke-linejoin="miter"><path d="M428.64,166.25v34.12h-61.31v-34.12c0,-4.3 3.49,-7.78 7.79,-7.78h45.72c4.31,0 7.8,3.48 7.8,7.78z" fill="#d0ab12"/><path d="M428.64,200.37v34.12c0,4.3 -3.49,7.79 -7.79,7.79h-45.72c-4.3,0 -7.79,-3.49 -7.79,-7.79v-34.12z" fill="none"/></g><g fill="none" stroke="#686868" stroke-width="2.7699" stroke-linecap="round" stroke-linejoin="round"><path d="M372.59,207.02v-13.29"/><path d="M423.37,207.02v-13.29"/></g></g></g><path d="M407.75,184.36v1.78h-5.39v-1.34c0,-2.85 -1.58,-4.69 -4.31,-4.69c-3.11,0 -4.57,2.41 -4.57,5.33c0,2.41 0.95,4.5 2.6,6.85c1.47,2.03 3.9,5.14 6.06,8.08h-7.54c-1.01,-1.33 -1.98,-2.66 -2.77,-3.9c-2.85,-4.5 -3.74,-7.92 -3.74,-11.1c0,-6.59 4,-10.71 10.09,-10.71c5.96,0 9.57,3.93 9.57,9.7z" fill="#2a2a2a" stroke="none" stroke-width="1" stroke-linecap="butt" stroke-linejoin="miter"/><path d="M428.64,200.37h-61.31l-4.15,-9.04c-2.07,-4.5 1.11,-9.78 6.06,-9.83c0.04,0 0.09,0 0.13,0h45.72c12.39,0 13.55,18.87 13.55,18.87z" fill="#b28c10" stroke="#000000" stroke-width="0.9233" stroke-linecap="butt" stroke-linejoin="miter"/><path d="M428.63,200.37v34.11c0,4.3 -3.48,7.79 -7.79,7.79h-45.72c-4.3,0 -7.8,-3.48 -7.8,-7.79v-34.11z" fill="#ffd117" stroke="#000000" stroke-width="0.9233" stroke-linecap="butt" stroke-linejoin="miter"/><path d="M402.75,191.18v1.02h-5.39v-0.77c0,-1.64 -1.58,-2.7 -4.31,-2.7c-3.11,0 -5.04,1.45 -4.57,3.06c1.01,3.44 11.5,6.89 13.66,8.58h-7.54c-1.01,-0.76 -11.51,-4.15 -11.51,-8.62c0,-3.79 4,-6.16 10.09,-6.16c5.96,0 9.57,2.26 9.57,5.59z" fill="#2a2a2a" stroke="none" stroke-width="1" stroke-linecap="butt" stroke-linejoin="miter"/><path d="M408.07,214.17c0,7.29 -3.17,11.92 -9.96,11.92c-6.53,0 -10.46,-4.31 -10.46,-9.71v-2.66l5.39,1.4v1.2c0,2.35 1.71,4.44 4.69,4.44c3.17,0 4.76,-2.16 4.76,-5.83c0,-2.29 -0.64,-4.57 -2.48,-7.42c-1.26,-1.9 -3.42,-4.52 -5.41,-7.14h7.54c1.2,1.64 2.32,3.22 3.14,4.54c1.96,3.1 2.79,5.64 2.79,9.26z" fill="#2a2a2a" stroke="none" stroke-width="1" stroke-linecap="butt" stroke-linejoin="miter"/><path d="M428.64,200.37h-61.31l-4.15,-9.04c-2.07,-4.5 1.11,-9.78 6.06,-9.83c0.04,0 0.09,0 0.13,0c0,0 18.04176,0 26.125,0c7.00052,0 19.595,0 19.595,0c12.39,0 13.55,18.87 13.55,18.87z" fill="none" stroke="#000000" stroke-width="0.9233" stroke-linecap="butt" stroke-linejoin="miter"/><path d="M369.71,198.05l2.88,2.32v6.65" fill="none" stroke="#686868" stroke-width="2.7699" stroke-linecap="round" stroke-linejoin="round"/><path d="M420.49,198.05l2.88,2.32v6.65" fill="none" stroke="#686868" stroke-width="2.7699" stroke-linecap="round" stroke-linejoin="round"/></g><text transform="translate(132.37502,291.4786) scale(0.65625,0.65625)" font-size="40" xml:space="preserve" fill="#ffffff" fill-rule="nonzero" stroke="none" stroke-width="1" stroke-linecap="butt" stroke-linejoin="miter" stroke-miterlimit="10" stroke-dasharray="" stroke-dashoffset="0" font-family="Sans Serif" font-weight="normal" text-anchor="start" style="mix-blend-mode: normal"><tspan x="0" dy="0">新年倒计时与烟花</tspan></text></g></g></svg>