<svg xml:space="preserve" viewBox="0 0 480 360" y="0px" x="0px" xmlns:xlink="http://www.w3.org/1999/xlink" xmlns="http://www.w3.org/2000/svg" id="Layer_1" version="1.1">
<g>
	<g>
		<g>
			<g>
				<path d="M244.1,158.5c0.5,0,0.5-0.8,0-0.8C243.6,157.8,243.6,158.5,244.1,158.5L244.1,158.5z" fill="#F8CF6C"></path>
			</g>
		</g>
		<g>
			<g>
				<path d="M229.5,161.7c1,0,1-1.5,0-1.5C228.5,160.2,228.5,161.7,229.5,161.7L229.5,161.7z" fill="#F8CF6C"></path>
			</g>
		</g>
		<g>
			<g>
				<path d="M233.9,158.4c1.4,0,1.5-2.2,0-2.2C232.5,156.1,232.5,158.4,233.9,158.4L233.9,158.4z" fill="#F8CF6C"></path>
			</g>
		</g>
		<g>
			<g>
				<path d="M237.4,167.6c1,0,1-1.5,0-1.5C236.4,166.1,236.4,167.6,237.4,167.6L237.4,167.6z" fill="#F8CF6C"></path>
			</g>
		</g>
		<g>
			<g>
				<path d="M223.2,179.2c0.5,0,0.5-0.8,0-0.8C222.8,178.4,222.8,179.2,223.2,179.2L223.2,179.2z" fill="#F8CF6C"></path>
			</g>
		</g>
		<g>
			<g>
				<path d="M227.4,190.4c0.5,0,0.5-0.8,0-0.8C226.9,189.6,226.9,190.4,227.4,190.4L227.4,190.4z" fill="#F8CF6C"></path>
			</g>
		</g>
		<g>
			<g>
				<path d="M243.8,198.9c1,0,1-1.5,0-1.5C242.8,197.4,242.8,198.9,243.8,198.9L243.8,198.9z" fill="#F8CF6C"></path>
			</g>
		</g>
		<g>
			<g>
				<path d="M254.8,193.2c1.4,0,1.5-2.2,0-2.2C253.3,191,253.3,193.2,254.8,193.2L254.8,193.2z" fill="#F8CF6C"></path>
			</g>
		</g>
		<g>
			<g>
				<path d="M262.5,173.7c1,0,1-1.5,0-1.5C261.5,172.2,261.5,173.7,262.5,173.7L262.5,173.7z" fill="#F8CF6C"></path>
			</g>
		</g>
		<g>
			<g>
				<path d="M225.6,174.2c1.4,0,1.5-2.2,0-2.2C224.2,172,224.2,174.2,225.6,174.2L225.6,174.2z" fill="#F8CF6C"></path>
			</g>
		</g>
		<g>
			<g>
				<path d="M215.6,183.3c1,0,1-1.5,0-1.5C214.6,181.8,214.6,183.3,215.6,183.3L215.6,183.3z" fill="#F8CF6C"></path>
			</g>
		</g>
		<g>
			<g>
				<path d="M235.1,203.9c1.4,0,1.5-2.2,0-2.2C233.6,201.6,233.6,203.9,235.1,203.9L235.1,203.9z" fill="#F8CF6C"></path>
			</g>
		</g>
		<g>
			<g>
				<path d="M262.3,194.5c1,0,1-1.5,0-1.5C261.3,193,261.3,194.5,262.3,194.5L262.3,194.5z" fill="#F8CF6C"></path>
			</g>
		</g>
		<g>
			<g>
				<path d="M264.4,180c0.5,0,0.5-0.8,0-0.8C263.9,179.3,263.9,180,264.4,180L264.4,180z" fill="#F8CF6C"></path>
			</g>
		</g>
	</g>
</g>
</svg>
