<svg version="1.1" xmlns="http://www.w3.org/2000/svg" xmlns:xlink="http://www.w3.org/1999/xlink" width="48.75751" height="63.22" viewBox="0,0,48.75751,63.22"><g transform="translate(-215.04249,-148.39)"><g data-paper-data="{&quot;isPaintingLayer&quot;:true}" fill-rule="nonzero" stroke-miterlimit="10" stroke-dasharray="" stroke-dashoffset="0" style="mix-blend-mode: normal"><g><g><g><g fill="none" stroke="#ffffff" stroke-width="5" stroke-linecap="butt" stroke-linejoin="miter"><g><g><path d="M261.3,156.29v23.71h-42.6v-23.7c0,-2.99 2.42,-5.41 5.41,-5.41h31.77c2.99,-0.01 5.42,2.41 5.42,5.4z"/><path d="M261.3,180v23.7c0,2.99 -2.43,5.41 -5.41,5.41h-31.77c-2.99,0 -5.41,-2.42 -5.41,-5.41v-23.7z"/></g></g></g><g><g><g fill="none" stroke="#494949" stroke-width="3.2076" stroke-linecap="round" stroke-linejoin="round"><path d="M261.3,156.29v23.71h-42.6v-23.7c0,-2.99 2.42,-5.41 5.41,-5.41h31.77c2.99,-0.01 5.42,2.41 5.42,5.4z"/><path d="M261.3,180v23.7c0,2.99 -2.43,5.41 -5.41,5.41h-31.77c-2.99,0 -5.41,-2.42 -5.41,-5.41v-23.7z"/></g><g><g stroke="#000000" stroke-width="0.6415" stroke-linecap="butt" stroke-linejoin="miter"><path d="M261.3,156.29v23.71h-42.6v-23.7c0,-2.99 2.42,-5.41 5.41,-5.41h31.77c2.99,-0.01 5.42,2.41 5.42,5.4z" fill="#2f2f2f"/><path d="M261.3,180v23.7c0,2.99 -2.43,5.41 -5.41,5.41h-31.77c-2.99,0 -5.41,-2.42 -5.41,-5.41v-23.7z" fill="#424242"/></g><path d="M260.89,203.06c0,2.99 -2.38,5.41 -5.31,5.41h-31.16c-2.93,0 -5.31,-2.42 -5.31,-5.41" fill="none" stroke="#636363" stroke-width="0.6415" stroke-linecap="round" stroke-linejoin="round"/><path d="M219.11,157.15c0,-2.99 2.38,-5.41 5.31,-5.41h31.16c2.93,0 5.31,2.42 5.31,5.41" fill="none" stroke="#494949" stroke-width="0.6415" stroke-linecap="round" stroke-linejoin="round"/><g fill="none" stroke="#000000" stroke-width="0.6415" stroke-linecap="butt" stroke-linejoin="miter"><path d="M261.3,156.29v23.71h-42.6v-23.7c0,-2.99 2.42,-5.41 5.41,-5.41h31.77c2.99,-0.01 5.42,2.41 5.42,5.4z"/><path d="M261.3,180v23.7c0,2.99 -2.43,5.41 -5.41,5.41h-31.77c-2.99,0 -5.41,-2.42 -5.41,-5.41v-23.7z"/></g><g fill="none" stroke="#686868" stroke-width="1.9246" stroke-linecap="round" stroke-linejoin="round"><path d="M222.36,175.38v9.24"/><path d="M257.64,175.38v9.24"/></g></g></g></g><g fill="#ffffff" stroke="none" stroke-width="1" stroke-linecap="butt" stroke-linejoin="miter"><path d="M247.11,169.02v10.98h-4.01v-10.93c0,-1.99 -1.28,-3.05 -3.1,-3.05c-1.81,0 -3.09,1.06 -3.09,3.05v10.93h-4.01v-10.98c0,-4.32 3.13,-6.93 7.1,-6.93c3.93,0 7.11,2.61 7.11,6.93z"/></g></g><g fill="#2f2f2f" stroke="#000000" stroke-width="0.6415" stroke-linecap="butt" stroke-linejoin="miter"><g><path d="M261.3,180h-42.6l-2.89,-6.28c-1.44,-3.13 0.77,-6.8 4.21,-6.83c0.03,0 0.06,0 0.09,0h31.77c8.61,-0.01 9.42,13.11 9.42,13.11z"/></g></g><path d="M261.3,180v23.7c0,2.99 -2.42,5.41 -5.41,5.41h-31.77c-2.99,0 -5.42,-2.42 -5.42,-5.41v-23.7z" fill="#424242" stroke="#000000" stroke-width="0.6415" stroke-linecap="butt" stroke-linejoin="miter"/><g fill="#ffffff" stroke="none" stroke-width="1" stroke-linecap="butt" stroke-linejoin="miter"><path d="M246.87,180v11.06c0,4.24 -2.91,6.84 -7.02,6.84c-4.11,0 -6.71,-2.6 -6.71,-6.84v-1.77l3.75,0.97v0.71c0,1.99 1.11,3 2.92,3c1.85,0 3.04,-1.01 3.04,-3v-7.02c-1.15,1.06 -2.65,1.68 -4.32,1.68c-2.85,0 -5.14,-1.82 -5.37,-5.63h3.88c0.3,1.22 1.07,1.92 2.55,1.92c1.32,0 2.34,-0.58 3.26,-1.68v-0.24z"/></g><g fill="#ffffff" stroke="none" stroke-width="1" stroke-linecap="butt" stroke-linejoin="miter"><path d="M246.87,180h-4.02c0,0 -1,-5.99 -4.96,-5.98c-0.01,0 -0.03,0 -0.05,0c-2.13,0.03 -3.29,2.53 -2.04,4.26l1.24,1.72h-3.88c0,-0.04 -0.08,-0.18 -0.2,-0.38c-2.51,-4.06 0.23,-9.46 5,-9.53c0.03,0 0.07,0 0.11,0c6.39,0 8.8,9.91 8.8,9.91z"/></g><g fill="none" stroke="#000000" stroke-width="0.6415" stroke-linecap="butt" stroke-linejoin="miter"><g><path d="M261.3,180h-42.6l-2.89,-6.28c-1.44,-3.13 0.77,-6.8 4.21,-6.83c0.03,0 0.06,0 0.09,0h31.77c8.61,-0.01 9.42,13.11 9.42,13.11z"/></g></g></g><g fill="none" stroke="#686868" stroke-width="1.9246" stroke-linecap="round" stroke-linejoin="round"><path d="M220.36,178.38l2,1.62v4.62"/><path d="M255.64,178.38l2,1.62v4.62"/></g></g></g></g></svg>