<svg xml:space="preserve" viewBox="0 0 480 360" y="0px" x="0px" xmlns:xlink="http://www.w3.org/1999/xlink" xmlns="http://www.w3.org/2000/svg" id="Layer_1" version="1.1">
<g>
	<g>
		<g>
			<path d="M231.4,176.4c-5.7-0.5-11.2-1.7-16.6-3.6c-0.3-0.1-0.4,0.3-0.1,0.4c5.4,1.8,11,3,16.8,3.6
				C231.7,176.9,231.7,176.4,231.4,176.4L231.4,176.4z" fill="#F8CF6C"></path>
		</g>
	</g>
	<g>
		<g>
			<path d="M233.1,175.1c-3.1-1-5.8-2.8-8.4-4.5c-0.2-0.2-0.5,0.2-0.2,0.4c2.7,1.8,5.4,3.6,8.5,4.6
				C233.3,175.6,233.4,175.2,233.1,175.1L233.1,175.1z" fill="#F8CF6C"></path>
		</g>
	</g>
	<g>
		<g>
			<path d="M230.9,157.3c2.2,4.2,4.5,8.3,7.1,12.2c0.2,0.2,0.5,0,0.4-0.2c-2.5-4-4.9-8.1-7.1-12.2
				C231.1,156.8,230.7,157.1,230.9,157.3L230.9,157.3z" fill="#F8CF6C"></path>
		</g>
	</g>
	<g>
		<g>
			<path d="M237.2,160.7c0.1,3,0.8,5.9,2.1,8.6c0.1,0.3,0.5,0,0.4-0.2c-1.2-2.6-1.9-5.5-2-8.4
				C237.6,160.4,237.2,160.4,237.2,160.7L237.2,160.7z" fill="#F8CF6C"></path>
		</g>
	</g>
	<g>
		<g>
			<path d="M246.3,171.2c2.1-5.8,5.9-10.6,9.7-15.3c0.2-0.2-0.1-0.5-0.3-0.3c-3.8,4.8-7.7,9.7-9.8,15.5
				C245.8,171.3,246.2,171.4,246.3,171.2L246.3,171.2z" fill="#F8CF6C"></path>
		</g>
	</g>
	<g>
		<g>
			<path d="M249.2,173c3.1-2.6,6.3-5,9.6-7.3c0.2-0.2,0-0.5-0.2-0.4c-3.4,2.3-6.6,4.8-9.7,7.4
				C248.7,172.8,249,173.1,249.2,173L249.2,173z" fill="#F8CF6C"></path>
		</g>
	</g>
	<g>
		<g>
			<path d="M265.3,181.2c-3.9-0.1-7.9-0.2-11.8-0.2c-0.3,0-0.3,0.4,0,0.4c3.9,0.1,7.9,0.2,11.8,0.2
				C265.6,181.6,265.6,181.2,265.3,181.2L265.3,181.2z" fill="#F8CF6C"></path>
		</g>
	</g>
	<g>
		<g>
			<path d="M246.1,188.3c1.9,4.9,4.3,9.7,7.1,14.1c0.2,0.2,0.5,0,0.4-0.2c-2.9-4.4-5.2-9.1-7.1-14
				C246.4,187.9,246,188,246.1,188.3L246.1,188.3z" fill="#F8CF6C"></path>
		</g>
	</g>
	<g>
		<g>
			<path d="M235.8,189c-1.7,3.1-2.9,6.4-3.4,9.9c0,0.3,0.4,0.4,0.4,0.1c0.5-3.4,1.7-6.7,3.4-9.8
				C236.3,188.9,236,188.7,235.8,189L235.8,189z" fill="#F8CF6C"></path>
		</g>
	</g>
	<g>
		<g>
			<path d="M235.6,188.9c-3.6,4.5-6.2,9.7-7.6,15.3c-0.1,0.3,0.4,0.4,0.4,0.1c1.4-5.5,4-10.7,7.5-15.1
				C236.1,189,235.8,188.7,235.6,188.9L235.6,188.9z" fill="#F8CF6C"></path>
		</g>
	</g>
	<g>
		<g>
			<path d="M231.7,185c-2.4,1.1-4.6,2.6-6.5,4.5c-0.2,0.2,0.1,0.5,0.3,0.3c1.8-1.9,4-3.4,6.4-4.4
				C232.2,185.3,231.9,184.9,231.7,185L231.7,185z" fill="#F8CF6C"></path>
		</g>
	</g>
	<g>
		<g>
			<path d="M230.2,182.7c-4.4,0.2-8.6,1.8-12.1,4.6c-0.2,0.2,0.1,0.5,0.3,0.3c3.4-2.6,7.5-4.2,11.8-4.4
				C230.5,183.1,230.5,182.7,230.2,182.7L230.2,182.7z" fill="#F8CF6C"></path>
		</g>
	</g>
</g>
</svg>
