<svg version="1.1" xmlns="http://www.w3.org/2000/svg" xmlns:xlink="http://www.w3.org/1999/xlink" width="48.75751" height="63.22" viewBox="0,0,48.75751,63.22"><g transform="translate(-215.04249,-148.39)"><g data-paper-data="{&quot;isPaintingLayer&quot;:true}" fill-rule="nonzero" stroke-miterlimit="10" stroke-dasharray="" stroke-dashoffset="0" style="mix-blend-mode: normal"><g><g><g><g fill="none" stroke="#ffffff" stroke-width="5" stroke-linecap="butt" stroke-linejoin="miter"><g><g><path d="M261.3,156.29v23.71h-42.6v-23.7c0,-2.99 2.42,-5.41 5.41,-5.41h31.77c2.99,-0.01 5.42,2.41 5.42,5.4z"/><path d="M261.3,180v23.7c0,2.99 -2.43,5.41 -5.41,5.41h-31.77c-2.99,0 -5.41,-2.42 -5.41,-5.41v-23.7z"/></g></g></g><g><g><g fill="none" stroke="#494949" stroke-width="3.2076" stroke-linecap="round" stroke-linejoin="round"><path d="M261.3,156.29v23.71h-42.6v-23.7c0,-2.99 2.42,-5.41 5.41,-5.41h31.77c2.99,-0.01 5.42,2.41 5.42,5.4z"/><path d="M261.3,180v23.7c0,2.99 -2.43,5.41 -5.41,5.41h-31.77c-2.99,0 -5.41,-2.42 -5.41,-5.41v-23.7z"/></g><g><g stroke="#000000" stroke-width="0.6415" stroke-linecap="butt" stroke-linejoin="miter"><path d="M261.3,156.29v23.71h-42.6v-23.7c0,-2.99 2.42,-5.41 5.41,-5.41h31.77c2.99,-0.01 5.42,2.41 5.42,5.4z" fill="#2f2f2f"/><path d="M261.3,180v23.7c0,2.99 -2.43,5.41 -5.41,5.41h-31.77c-2.99,0 -5.41,-2.42 -5.41,-5.41v-23.7z" fill="#424242"/></g><path d="M260.89,203.06c0,2.99 -2.38,5.41 -5.31,5.41h-31.16c-2.93,0 -5.31,-2.42 -5.31,-5.41" fill="none" stroke="#636363" stroke-width="0.6415" stroke-linecap="round" stroke-linejoin="round"/><path d="M219.11,157.15c0,-2.99 2.38,-5.41 5.31,-5.41h31.16c2.93,0 5.31,2.42 5.31,5.41" fill="none" stroke="#494949" stroke-width="0.6415" stroke-linecap="round" stroke-linejoin="round"/><g fill="none" stroke="#000000" stroke-width="0.6415" stroke-linecap="butt" stroke-linejoin="miter"><path d="M261.3,156.29v23.71h-42.6v-23.7c0,-2.99 2.42,-5.41 5.41,-5.41h31.77c2.99,-0.01 5.42,2.41 5.42,5.4z"/><path d="M261.3,180v23.7c0,2.99 -2.43,5.41 -5.41,5.41h-31.77c-2.99,0 -5.41,-2.42 -5.41,-5.41v-23.7z"/></g><g fill="none" stroke="#686868" stroke-width="1.9246" stroke-linecap="round" stroke-linejoin="round"><path d="M222.36,175.38v9.24"/><path d="M257.64,175.38v9.24"/></g></g></g></g></g><g fill="#ffffff" stroke="none" stroke-width="1" stroke-linecap="butt" stroke-linejoin="miter"><path d="M244.13,179.36c0.44,0.16 0.83,0.37 1.17,0.64h-7.88v-2.28h2.16c2.26,0 3.1,-0.84 3.1,-3.22v-4.99c0,-2.16 -0.89,-3.49 -3.05,-3.49c-1.99,0 -2.92,1.15 -2.92,3.18v0.88h-3.75v-1.14c0,-4.24 2.61,-6.85 6.71,-6.85c4.6,0 6.98,3.18 6.98,7.46v4.82c0,2.82 -0.84,4.28 -2.52,4.99z"/></g><g fill="#2f2f2f" stroke="#000000" stroke-width="0.6415" stroke-linecap="butt" stroke-linejoin="miter"><g><path d="M261.3,180h-42.6l-2.89,-6.28c-1.44,-3.13 0.77,-6.8 4.21,-6.83c0.03,0 0.06,0 0.09,0h31.77c8.61,-0.01 9.42,13.11 9.42,13.11z"/></g></g><path d="M261.3,180v23.7c0,2.99 -2.42,5.41 -5.41,5.41h-31.77c-2.99,0 -5.42,-2.42 -5.42,-5.41v-23.7z" fill="#424242" stroke="#000000" stroke-width="0.6415" stroke-linecap="butt" stroke-linejoin="miter"/><g fill="none" stroke="#000000" stroke-width="0.6415" stroke-linecap="butt" stroke-linejoin="miter"><g><path d="M261.3,180h-42.6l-2.89,-6.28c-1.44,-3.13 0.77,-6.8 4.21,-6.83c0.03,0 0.06,0 0.09,0h31.77c8.61,-0.01 9.42,13.11 9.42,13.11z"/></g></g><g fill="#ffffff" stroke="none" stroke-width="1" stroke-linecap="butt" stroke-linejoin="miter"><path d="M246.87,175.23c0,1.43 -4.31,4.77 -4.31,4.77h-4.67c0,0 4.96,-3.92 4.96,-4.84c0,-1.53 -1.01,-2.07 -2.91,-2.07c-1.95,0 -3.05,0.59 -3.05,1.74v0.61h-3.75v-0.67c0,-2.45 2.51,-3.96 6.89,-3.96c4.1,0 6.84,1.3 6.84,4.42z"/></g><g fill="#ffffff" stroke="none" stroke-width="1" stroke-linecap="butt" stroke-linejoin="miter"><path d="M246.87,193.66v3.93h-13.42v-6.8c0,-2.2 0.39,-4.41 1.76,-6.8c0.65,-1.16 1.64,-2.56 2.68,-3.99h4.67c-1.24,1.77 -2.53,3.59 -3.46,5.1c-1.28,2.12 -1.59,3.13 -1.59,5.69v2.87z"/></g></g><g fill="none" stroke="#686868" stroke-width="1.9246" stroke-linecap="round" stroke-linejoin="round"><path d="M220.36,178.38l2,1.62v4.62"/><path d="M255.64,178.38l2,1.62v4.62"/></g></g></g></g></svg>